<?xml version="1.0" standalone="no"?>
<!DOCTYPE svg PUBLIC "-//W3C//DTD SVG 20010904//EN"
 "http://www.w3.org/TR/2001/REC-SVG-20010904/DTD/svg10.dtd">
<svg version="1.0" xmlns="http://www.w3.org/2000/svg"
 width="310.000000pt" height="310.000000pt" viewBox="0 0 310.000000 310.000000"
 preserveAspectRatio="xMidYMid meet">
<metadata>
Created by potrace 1.14, written by Peter Selinger 2001-2017
</metadata>
<g transform="translate(0.000000,310.000000) scale(0.100000,-0.100000)"
fill="#000000" stroke="none">
<path d="M0 1550 l0 -1550 1550 0 1550 0 0 1550 0 1550 -1550 0 -1550 0 0
-1550z m1714 1264 c139 -40 249 -163 291 -327 11 -44 15 -120 15 -312 l0 -255
-114 0 -114 0 -4 253 c-3 235 -4 255 -24 292 -25 46 -45 66 -91 89 -40 20
-148 21 -195 1 -46 -19 -95 -75 -108 -124 -7 -27 -10 -319 -8 -913 l3 -873 29
-42 c38 -57 98 -86 179 -85 72 0 101 10 145 47 62 52 66 73 70 352 l4 253 114
0 114 0 0 -254 c0 -337 -17 -405 -132 -531 -159 -175 -483 -175 -653 0 -63 64
-118 171 -134 259 -15 83 -15 1720 0 1801 19 102 61 179 141 259 77 76 146
112 248 127 58 9 162 1 224 -17z"/>
</g>
</svg>
