<svg width="18px" height="16px" viewBox="0 0 18 16" version="1.1" xmlns="http://www.w3.org/2000/svg" class="linkedin-icon">
    <title>LinkedIn Icon</title>
    <g transform="translate(-172.000000, -297.000000)" fill="currentColor">
        <path d="M175.375,302.333333 L175.375,313 L172,313 L172,302.333333 L175.375,302.333333 Z M185.757102,302.333333 C188.182046,302.333333 190,303.823171 190,307.024257 L190,307.024257 L189.999853,312.999723 L186.314933,312.999723 L186.314933,307.424124 C186.314933,306.023654 185.781682,305.068011 184.447673,305.068011 C183.429595,305.068011 182.823193,305.712254 182.556862,306.334501 C182.459426,306.557502 182.435509,306.868211 182.435509,307.17968 L182.435509,307.17968 L182.435509,313 L178.75,313 C178.75,313 178.798571,303.556247 178.75,302.578331 L178.75,302.578331 L182.435509,302.578331 L182.435509,304.054473 C182.924604,303.344865 183.800574,302.333333 185.757102,302.333333 Z M174.262981,297 C175.631362,297 176.474038,297.691526 176.5,298.599447 C176.5,299.488561 175.631362,300.2 174.23662,300.2 L174.23662,300.2 L174.211057,300.2 C172.868159,300.2 172,299.488561 172,298.599447 C172,297.691526 172.8946,297 174.262981,297 Z" />
    </g>
</svg>
