<svg width="15px" height="15px" viewBox="0 0 15 15" version="1.1" xmlns="http://www.w3.org/2000/svg" xmlns:xlink="http://www.w3.org/1999/xlink">
    <title>Print Icon</title>
    <defs>
        <path d="M3.05416827,0 L2.94467922,0.0115207373 C2.53265463,0.0662442396 2.22147522,0.411866359 2.22147522,0.835253456 L2.22147522,0.835253456 L2.22147522,4.16762673 L3.8897426,4.16762673 L3.8897426,1.66762673 L11.1102574,1.66762673 L11.1102574,4.16762673 L12.7785248,4.16762673 L12.7785248,0.835253456 L12.7727622,0.720046083 C12.7151364,0.313940092 12.3665002,0 11.9458317,0 L11.9458317,0 L3.05416827,0 Z M0.832693046,4.44700461 L0.717441414,4.45276498 C0.314060699,4.50748848 0,4.85599078 0,5.27937788 L0,5.27937788 L0,11.9441244 L0.00576258164,12.0564516 C0.0605071072,12.4625576 0.409143296,12.7764977 0.832693046,12.7764977 L0.832693046,12.7764977 L3.25585862,12.7764977 L3.33077219,12.7736175 L3.33077219,14.1676267 C3.33077219,14.625576 3.70533999,15 4.16634652,15 L4.16634652,15 L10.8336535,15 L10.9489051,14.9913594 C11.3551671,14.9366359 11.6663465,14.5881336 11.6663465,14.1676267 L11.6663465,14.1676267 L11.6663465,12.7736175 L11.7441414,12.7764977 L14.167307,12.7764977 L14.2796773,12.7707373 C14.6888206,12.7131336 15,12.3675115 15,11.9441244 L15,11.9441244 L15,5.27937788 L14.9913561,5.16705069 C14.9394929,4.7609447 14.5908567,4.44700461 14.167307,4.44700461 L14.167307,4.44700461 L0.832693046,4.44700461 Z M1.6625048,6.11175115 L13.3346139,6.11175115 L13.3346139,11.1117512 L11.7441414,11.1117512 L11.6663465,11.1146313 L11.6663465,9.72062212 C11.6663465,9.265553 11.29466,8.88824885 10.8336535,8.88824885 L10.8336535,8.88824885 L4.16634652,8.88824885 L4.05109489,8.8968894 C3.64771418,8.95449309 3.33077219,9.30011521 3.33077219,9.72062212 L3.33077219,9.72062212 L3.33077219,11.1146313 L3.25585862,11.1117512 L1.6625048,11.1117512 L1.6625048,6.11175115 Z M4.99903957,13.3352535 L10.0009604,13.3352535 L10.0009604,10.5558756 L4.99903957,10.5558756 L4.99903957,13.3352535 Z" id="path-1" />
    </defs>
    <g stroke="none" stroke-width="1" fill="none" fill-rule="evenodd">
        <g id="FAQs" transform="translate(-1144.000000, -374.000000)">
            <g id="sharing" transform="translate(1144.000000, 374.000000)">
                <g id="Group-34" transform="translate(0.000000, -0.000000)">
                    <mask id="mask-2" fill="white">
                        <use xlink:href="#path-1" />
                    </mask>
                    <g id="Clip-33" />
                    <polygon fill="currentColor" mask="url(#mask-2)" points="-5.55800999 20.5529954 20.55801 20.5529954 20.55801 -5.55299539 -5.55800999 -5.55299539" />
                </g>
            </g>
        </g>
    </g>
</svg>
